<svg width="18" height="18" viewBox="0 0 24 24" fill="none" xmlns="http://www.w3.org/2000/svg">
  <path fill-rule="evenodd" clip-rule="evenodd" d="M12 0C5.373 0 0 5.373 0 12c0 5.302 3.438 9.8 8.205 11.387.6.111.82-.261.82-.58 0-.287-.01-1.049-.016-2.06-3.338.726-4.042-1.61-4.042-1.61-.546-1.388-1.334-1.758-1.334-1.758-1.09-.745.082-.73.082-.73 1.205.085 1.84 1.238 1.84 1.238 1.07 1.834 2.809 1.304 3.492.997.108-.775.418-1.304.761-1.604-2.665-.303-5.467-1.332-5.467-5.93 0-1.31.469-2.381 1.236-3.221-.124-.303-.536-1.523.117-3.176 0 0 1.008-.322 3.301 1.23a11.5 11.5 0 0 1 3.004-.404c1.02.005 2.046.138 3.004.404 2.293-1.552 3.3-1.23 3.3-1.23.654 1.653.242 2.873.118 3.176.77.84 1.235 1.911 1.235 3.221 0 4.61-2.807 5.624-5.48 5.92.43.37.813 1.102.813 2.222 0 1.605-.015 2.898-.015 3.293 0 .321.218.696.825.578C20.565 21.796 24 17.298 24 12 24 5.373 18.627 0 12 0z" fill="currentColor"/>
</svg>
