<svg width="18" height="18" viewBox="0 0 48 48" xmlns="http://www.w3.org/2000/svg">
  <path fill="#FFC107" d="M43.611 20.083H42V20H24v8h11.303c-1.649 4.657-6.08 8-11.303 8-6.627 0-12-5.373-12-12s5.373-12 12-12c3.059 0 5.842 1.154 7.949 3.051l5.657-5.657C34.046 6.053 29.268 4 24 4 12.955 4 4 12.955 4 24s8.955 20 20 20 20-8.955 20-20c0-1.341-.138-2.651-.389-3.917z"/>
  <path fill="#FF3D00" d="M6.306 14.691l6.571 4.817C14.464 15.108 18.829 12 24 12c3.059 0 5.842 1.154 7.949 3.051l5.657-5.657C34.046 6.053 29.268 4 24 4 16.318 4 9.656 8.337 6.306 14.691z"/>
  <path fill="#4CAF50" d="M24 44c5.132 0 9.86-1.97 13.409-5.197l-6.191-5.238C29.2 35.091 26.741 36 24 36c-5.206 0-9.622-3.317-11.287-7.946l-6.53 5.03C9.484 39.529 16.227 44 24 44z"/>
  <path fill="#1976D2" d="M43.611 20.083H42V20H24v8h11.303c-.793 2.238-2.231 4.166-3.994 5.565.001-.001 6.191 5.238 6.191 5.238C40.463 35.676 44 30.272 44 24c0-1.341-.138-2.651-.389-3.917z"/>
</svg>
